<mxfile host="app.diagrams.net" agent="Mozilla/5.0 (Windows NT 10.0; Win64; x64) AppleWebKit/537.36 (KHTML, like Gecko) Chrome/127.0.0.0 Safari/537.36 Edg/127.0.0.0" version="24.7.7">
  <diagram name="第 1 页" id="MafnV5kA-N-Bn0CcQXsm">
    <mxGraphModel dx="1192" dy="833" grid="1" gridSize="10" guides="1" tooltips="1" connect="1" arrows="1" fold="1" page="0" pageScale="1" pageWidth="827" pageHeight="1169" math="0" shadow="0">
      <root>
        <mxCell id="0" />
        <mxCell id="1" parent="0" />
        <mxCell id="W3ZhN9rzalotpdxbDRm3-1" value="Qwen模型" style="rounded=0;whiteSpace=wrap;html=1;" parent="1" vertex="1">
          <mxGeometry x="300" y="-110" width="120" height="40" as="geometry" />
        </mxCell>
        <mxCell id="W3ZhN9rzalotpdxbDRm3-2" value="Embedding模型" style="rounded=0;whiteSpace=wrap;html=1;" parent="1" vertex="1">
          <mxGeometry x="-10" y="-80" width="120" height="40" as="geometry" />
        </mxCell>
        <mxCell id="W3ZhN9rzalotpdxbDRm3-3" value="BM2.5算法" style="rounded=0;whiteSpace=wrap;html=1;" parent="1" vertex="1">
          <mxGeometry x="-10" y="-30" width="120" height="40" as="geometry" />
        </mxCell>
        <mxCell id="W3ZhN9rzalotpdxbDRm3-4" value="检索模型" style="rounded=0;whiteSpace=wrap;html=1;" parent="1" vertex="1">
          <mxGeometry x="100" y="-130" width="120" height="40" as="geometry" />
        </mxCell>
        <mxCell id="O_Eo14AQ1HiPcfrSu76b-1" value="Reranker模型" style="rounded=0;whiteSpace=wrap;html=1;" vertex="1" parent="1">
          <mxGeometry x="150" y="-80" width="120" height="40" as="geometry" />
        </mxCell>
        <mxCell id="O_Eo14AQ1HiPcfrSu76b-2" value="Qwen模型" style="rounded=0;whiteSpace=wrap;html=1;" vertex="1" parent="1">
          <mxGeometry x="-10" y="80" width="120" height="40" as="geometry" />
        </mxCell>
      </root>
    </mxGraphModel>
  </diagram>
</mxfile>
